# xmcd
#
# Track frame offsets: 
#        150
#        38673
#        59740
#        83748
#        116958
#        157035
#        177780
#        201635
#        228140
#        250588
#        267480
#        301610
#        326833
#
# Disc length: 4699 seconds
#
# Revision: 1
# Processed by: cddbd v1.5.1PL2 Copyright (c) Steve Scherf et al.
# Submitted via: ExactAudioCopy v0.95b3
#
DISCID=b312590d
DTITLE=Houston Person - Legends of acid jazz
DYEAR=1970
DGENRE=Jazz
TTITLE0=Son of man
TTITLE1=Tear drops
TTITLE2=Close to you
TTITLE3=Drown in my own tears
TTITLE4=Up at Joe's, down at Jim's
TTITLE5=Yester-me, yester-you, yesterday
TTITLE6=Young, gifted and black
TTITLE7=The Houston express
TTITLE8=Enjoy
TTITLE9=Give more power to the people (for God's sake)
TTITLE10=Chains of love
TTITLE11=Just my imagination
TTITLE12=Lift every voice and sing
EXTD=YEAR: 1970
EXTT0=
EXTT1=
EXTT2=
EXTT3=
EXTT4=
EXTT5=
EXTT6=
EXTT7=
EXTT8=
EXTT9=
EXTT10=
EXTT11=
EXTT12=
PLAYORDER=
